<?xml version="1.0" encoding="iso-8859-1"?>
<!-- Uploaded to: SVG Repo, www.svgrepo.com, Generator: SVG Repo Mixer Tools -->
<svg height="800px" width="800px" version="1.1" id="Layer_1" xmlns="http://www.w3.org/2000/svg" xmlns:xlink="http://www.w3.org/1999/xlink" 
	 viewBox="0 0 511.98 511.98" xml:space="preserve">
<path style="fill:#424953;" d="M511.98,367.982c0,23.562-52.857,85.34-255.99,85.34S0,391.544,0,367.982
	s114.613-21.343,255.99-21.343C397.36,346.639,511.98,344.421,511.98,367.982z"/>
<path style="fill:#646C77;" d="M255.99,58.658c-100.145,0-181.329,14.327-181.329,31.998l10.671,287.981
	c0,0,42.663,21.344,170.658,21.344s170.65-21.344,170.65-21.344l10.688-287.981C437.328,72.985,356.142,58.658,255.99,58.658z"/>
<path style="fill:#EC5564;" d="M428.234,335.983c0,0-44.249,21.343-172.244,21.343S83.747,335.983,83.747,335.983l1.585,42.654
	c0,0,42.663,21.344,170.658,21.344s170.65-21.344,170.65-21.344L428.234,335.983z"/>
<g style="opacity:0.2;">
	<path style="fill:#FFFFFF;" d="M255.99,58.658c-3.578,0-7.132,0.023-10.664,0.055c95.176,0.977,170.659,14.905,170.659,31.943
		l-10.656,294.856l21.312-6.875l10.688-287.981C437.328,72.985,356.142,58.658,255.99,58.658z"/>
</g>
<path style="fill:#59616B;" d="M437.328,90.656c0,17.672-81.186,31.999-181.338,31.999c-100.145,0-181.329-14.327-181.329-31.999
	c0-17.671,81.185-31.998,181.329-31.998C356.142,58.658,437.328,72.985,437.328,90.656z"/>
</svg>