<?xml version="1.0" encoding="iso-8859-1"?>
<!-- Uploaded to: SVG Repo, www.svgrepo.com, Generator: SVG Repo Mixer Tools -->
<svg height="800px" width="800px" version="1.1" id="Layer_1" xmlns="http://www.w3.org/2000/svg" xmlns:xlink="http://www.w3.org/1999/xlink" 
	 viewBox="0 0 511.98 511.98" xml:space="preserve">
<path style="fill:#4FC0E8;" d="M480.623,330.029c-6.094-29.764-14.656-57.23-25.453-81.668
	c-13.624-30.874-30.873-56.99-51.278-77.623c-38.546-38.982-88.325-58.748-147.933-58.748c-59.607,0-109.371,19.765-147.932,58.748
	c-20.39,20.632-37.655,46.749-51.279,77.623c-10.796,24.438-19.359,51.904-25.452,81.668
	c-10.359,50.514-10.046,89.764-10.015,91.404l0.109,10.547h469.139l0.125-10.547C490.669,419.793,490.981,380.543,480.623,330.029z"
	/>
<path style="opacity:0.2;fill:#FFFFFF;enable-background:new    ;" d="M480.623,330.029c-6.094-29.764-14.656-57.23-25.453-81.668
	c-13.624-30.874-30.873-56.99-51.278-77.623c-38.546-38.982-88.325-58.748-147.933-58.748c-3.593,0-7.14,0.078-10.671,0.219
	c54.905,2.234,101.043,21.898,137.276,58.529c20.391,20.632,37.656,46.749,51.28,77.623c10.796,24.438,19.357,51.904,25.451,81.668
	c10.359,50.514,10.031,89.764,10.016,91.404l-0.109,10.547h21.327l0.125-10.547C490.669,419.793,490.981,380.543,480.623,330.029z"
	/>
<g>
	<path style="fill:#E5E8EC;" d="M511.98,389.324c0-5.906-4.781-10.688-10.671-10.688H10.671C4.78,378.636,0,383.417,0,389.324
		v85.311c0,5.906,4.781,10.688,10.671,10.688h490.638c5.89,0,10.671-4.781,10.671-10.688V389.324z"/>
	<path style="fill:#E5E8EC;" d="M309.285,79.991c0,29.452-23.873,53.334-53.326,53.334c-29.452,0-53.326-23.882-53.326-53.334
		s23.874-53.334,53.326-53.334C285.412,26.657,309.285,50.539,309.285,79.991z"/>
</g>
<g>
	<path style="fill:#CBD0D8;" d="M85.324,431.979c-5.89,0-10.656,4.781-10.656,10.654v42h21.327v-42
		C95.996,436.76,91.215,431.979,85.324,431.979z"/>
	<path style="fill:#CBD0D8;" d="M170.665,431.979c-5.89,0-10.671,4.781-10.671,10.654v42h21.328v-42
		C181.321,436.76,176.555,431.979,170.665,431.979z"/>
	<path style="fill:#CBD0D8;" d="M255.99,431.979c-5.89,0-10.671,4.781-10.671,10.654v42h21.343v-42
		C266.662,436.76,261.881,431.979,255.99,431.979z"/>
	<path style="fill:#CBD0D8;" d="M341.315,431.979c-5.891,0-10.656,4.781-10.656,10.654v42h21.328v-42
		C351.987,436.76,347.206,431.979,341.315,431.979z"/>
	<path style="fill:#CBD0D8;" d="M426.656,431.979c-5.89,0-10.671,4.781-10.671,10.654v42h21.327v-42
		C437.312,436.76,432.547,431.979,426.656,431.979z"/>
</g>
</svg>